<?xml version="1.0" encoding="UTF-8" standalone="no"?><!DOCTYPE svg PUBLIC "-//W3C//DTD SVG 1.1//EN" "http://www.w3.org/Graphics/SVG/1.1/DTD/svg11.dtd"><svg width="100%" height="100%" viewBox="0 0 698 218" version="1.1" xmlns="http://www.w3.org/2000/svg" xmlns:xlink="http://www.w3.org/1999/xlink" xml:space="preserve" style="fill-rule:evenodd;clip-rule:evenodd;stroke-linejoin:round;stroke-miterlimit:1.41421;"><path d="M350.983,196.798c-0.666,0.693 -1.526,1.222 -2.532,1.381l-12.229,1.84c-0.761,0.117 -1.273,-0.146 -1.565,-0.584c-0.361,-0.551 -0.409,-1.419 -0.19,-2.288l4.085,-15.613c0.202,-0.774 0.757,-1.54 1.501,-2.132c0.679,-0.555 1.484,-0.943 2.314,-1.063l11.339,-1.707c1.169,-0.185 1.96,0.185 2.342,0.89c0.271,0.559 0.289,1.329 0.056,2.245l-1.053,4.033l-4.532,0.68l0.761,-2.904c0.129,-0.467 -0.19,-0.674 -0.602,-0.618l-7.465,1.122c-0.214,0.039 -0.52,0.357 -0.588,0.632l-3.226,12.298c-0.103,0.421 0.155,0.696 0.603,0.619l7.361,-1.105c0.542,-0.078 0.851,-0.503 0.984,-1.006l0.904,-3.427l4.334,-0.658l-1.35,5.13c-0.211,0.799 -0.633,1.59 -1.252,2.235" style="fill:#e8380d;fill-rule:nonzero;"/><path d="M364.528,195.741l3.108,-11.901c0.095,-0.328 0.044,-0.546 -0.322,-0.499l-5.074,0.778l-3.272,12.465l-4.407,0.667l5.633,-21.572l4.416,-0.667l-2.034,7.799c0.327,-0.657 0.757,-1.263 1.213,-1.775c0.515,-0.581 1.109,-0.972 1.723,-1.071l5.023,-0.748c0.726,-0.117 1.453,0.176 1.789,0.86c0.202,0.46 0.254,1.074 0.056,1.814l-3.44,13.188l-4.412,0.662Z" style="fill:#e8380d;fill-rule:nonzero;"/><path d="M383.646,192.869c-0.392,0.043 -0.752,-0.061 -1.049,-0.275c-0.332,-0.292 -0.56,-0.74 -0.542,-1.217c-0.395,0.649 -0.835,1.144 -1.359,1.505c-0.525,0.37 -1.127,0.593 -1.762,0.688l-3.966,0.602c-0.752,0.112 -1.328,-0.146 -1.699,-0.602c-0.381,-0.503 -0.484,-1.316 -0.248,-2.24l3.431,-13.128l4.416,-0.662l-3.139,12.027c-0.078,0.275 0.094,0.554 0.395,0.507l4.361,-0.644l3.307,-12.629l4.459,-0.68l-3.183,12.182c-0.076,0.27 0.237,0.421 0.601,0.369l0.75,-0.124l-0.976,3.741l-3.797,0.58Z" style="fill:#e8380d;fill-rule:nonzero;"/><path d="M400.347,178.33c-0.481,0.073 -1.17,0.469 -1.746,0.946c-0.598,0.486 -1.101,1.075 -1.23,1.604l-2.709,10.333l-4.377,0.675l4.283,-16.417l4.385,-0.658l-0.377,1.445c0.395,-0.451 0.821,-0.865 1.302,-1.192c0.494,-0.331 1.058,-0.546 1.793,-0.67l3.294,-0.491l-1.019,3.879l-3.599,0.546Z" style="fill:#e8380d;fill-rule:nonzero;"/><path d="M417.71,186.901c-0.59,0.593 -1.359,1.049 -2.142,1.169l-9.451,1.428c-0.765,0.125 -1.324,-0.108 -1.63,-0.542c-0.326,-0.529 -0.374,-1.316 -0.137,-2.266l2.76,-10.582c0.176,-0.676 0.77,-1.519 1.475,-2.129c0.56,-0.485 1.174,-0.829 1.716,-0.911l9.322,-1.41c0.615,-0.1 1.247,0.158 1.608,0.726c0.267,0.417 0.353,1.032 0.133,1.831l-0.842,3.234l-4.3,0.645l0.409,-1.544c0.12,-0.467 0.008,-0.846 -0.547,-0.764l-4.145,0.619c-0.245,0.043 -0.761,0.365 -0.89,0.843l-1.913,7.382c-0.104,0.391 0.021,0.783 0.499,0.714l4.273,-0.636c0.478,-0.078 0.925,-0.362 1.067,-0.904l0.495,-1.895l4.381,-0.663l-0.951,3.608c-0.189,0.743 -0.619,1.466 -1.19,2.047" style="fill:#e8380d;fill-rule:nonzero;"/><path d="M431.271,185.679l3.104,-11.924c0.091,-0.322 0.048,-0.532 -0.318,-0.49l-5.078,0.766l-3.272,12.474l-4.403,0.683l5.637,-21.585l4.416,-0.662l-2.046,7.8c0.334,-0.658 0.765,-1.26 1.225,-1.79c0.516,-0.562 1.109,-0.962 1.719,-1.052l5.023,-0.762c0.726,-0.111 1.453,0.177 1.789,0.864c0.197,0.461 0.258,1.075 0.06,1.82l-3.449,13.192l-4.407,0.666Z" style="fill:#e8380d;fill-rule:nonzero;"/><path d="M460.055,174.865l-1.793,6.734l-4.601,0.697l1.836,-7.018l-3.294,-13.519l5.23,-0.787l1.895,8.222l6.537,-9.49l5.112,-0.782l-10.922,15.943Z" style="fill:#e8380d;fill-rule:nonzero;"/><path d="M480.764,166.807c0.09,-0.34 -0.009,-0.701 -0.28,-0.658l-4.489,0.671c-0.361,0.064 -0.76,0.232 -0.903,0.757l-1.905,7.271c-0.12,0.477 0.086,0.816 0.568,0.743l4.352,-0.657c0.395,-0.057 0.632,-0.361 0.761,-0.86l1.896,-7.267Zm0.786,10.226c-0.795,0.769 -1.793,1.324 -2.682,1.461l-7.934,1.196c-1.032,0.158 -1.815,-0.125 -2.278,-0.74c-0.367,-0.516 -0.499,-1.234 -0.276,-2.09l2.481,-9.494c0.25,-0.972 0.813,-1.888 1.509,-2.584c0.77,-0.8 1.738,-1.321 2.663,-1.45l8.458,-1.281c0.755,-0.107 1.496,0.314 1.89,0.963c0.327,0.577 0.327,1.286 0.13,2.056l-2.537,9.696c-0.215,0.83 -0.744,1.616 -1.424,2.267" style="fill:#e8380d;fill-rule:nonzero;"/><path d="M496.699,175.793c-0.387,0.056 -0.753,-0.06 -1.041,-0.262c-0.335,-0.288 -0.567,-0.74 -0.542,-1.229c-0.399,0.653 -0.843,1.152 -1.367,1.517c-0.521,0.362 -1.122,0.598 -1.767,0.693l-3.965,0.593c-0.753,0.12 -1.329,-0.138 -1.685,-0.593c-0.387,-0.508 -0.503,-1.325 -0.25,-2.245l3.431,-13.119l4.404,-0.663l-3.144,12.015c-0.059,0.266 0.099,0.563 0.408,0.516l4.365,-0.654l3.29,-12.633l4.459,-0.666l-3.173,12.168c-0.069,0.267 0.24,0.426 0.601,0.366l0.757,-0.104l-0.984,3.738l-3.797,0.562Z" style="fill:#e8380d;fill-rule:nonzero;"/><path d="M513.512,161.14l-2.181,8.315c-0.072,0.297 0.199,0.487 0.56,0.435l3.225,-0.481l-0.998,3.761l-5.641,0.848c-0.696,0.107 -1.235,-0.186 -1.569,-0.641c-0.396,-0.542 -0.517,-1.315 -0.345,-1.973l2.507,-9.598l-2.842,0.426l0.984,-3.763l2.847,-0.434l1.35,-5.186l4.438,-0.666l-1.355,5.182l4.081,-0.62l-0.981,3.776l-4.08,0.619Z" style="fill:#e8380d;fill-rule:nonzero;"/><path d="M527.104,171.205l3.108,-11.919c0.091,-0.314 0.035,-0.546 -0.326,-0.481l-5.078,0.76l-3.267,12.483l-4.413,0.667l5.642,-21.581l4.416,-0.658l-2.035,7.782c0.328,-0.632 0.748,-1.242 1.208,-1.776c0.529,-0.554 1.118,-0.954 1.725,-1.048l5.027,-0.762c0.73,-0.112 1.458,0.177 1.788,0.869c0.203,0.46 0.259,1.07 0.056,1.814l-3.444,13.188l-4.408,0.662Z" style="fill:#e8380d;fill-rule:nonzero;"/><path d="M552.524,150.566l-1.256,4.816l9.521,-1.444l-1.058,4.063l-9.524,1.436l-2.245,8.596l-4.7,0.714l5.651,-21.59l14.963,-2.254l-1.08,4.12l-10.272,1.543Z" style="fill:#e8380d;fill-rule:nonzero;"/><path d="M574.218,152.712c0.095,-0.353 0,-0.71 -0.28,-0.676l-4.489,0.684c-0.37,0.052 -0.76,0.223 -0.899,0.762l-1.896,7.253c-0.128,0.477 0.078,0.817 0.55,0.745l4.352,-0.655c0.404,-0.055 0.637,-0.34 0.769,-0.86l1.893,-7.253Zm0.8,10.203c-0.8,0.783 -1.794,1.333 -2.693,1.466l-7.924,1.191c-1.032,0.164 -1.819,-0.116 -2.283,-0.73c-0.37,-0.508 -0.507,-1.234 -0.284,-2.095l2.477,-9.473c0.266,-0.988 0.821,-1.896 1.513,-2.6c0.775,-0.809 1.738,-1.32 2.658,-1.454l8.458,-1.273c0.765,-0.112 1.505,0.306 1.9,0.967c0.322,0.577 0.322,1.282 0.129,2.061l-2.528,9.682c-0.219,0.835 -0.74,1.621 -1.423,2.258" style="fill:#e8380d;fill-rule:nonzero;"/><path d="M588.743,149.891c-0.474,0.069 -1.17,0.456 -1.746,0.941c-0.594,0.483 -1.088,1.089 -1.23,1.618l-2.71,10.34l-4.38,0.663l4.287,-16.426l4.389,-0.657l-0.382,1.465c0.396,-0.472 0.821,-0.881 1.307,-1.203c0.486,-0.331 1.058,-0.555 1.788,-0.667l3.294,-0.494l-1.018,3.874l-3.599,0.546Z" style="fill:#e8380d;fill-rule:nonzero;"/><path d="M603.534,159.673c-0.391,0.056 -0.766,-0.056 -1.062,-0.271c-0.332,-0.301 -0.559,-0.74 -0.534,-1.216c-0.39,0.644 -0.838,1.143 -1.362,1.5c-0.524,0.37 -1.114,0.602 -1.768,0.696l-3.951,0.599c-0.77,0.107 -1.338,-0.147 -1.694,-0.599c-0.379,-0.511 -0.494,-1.319 -0.258,-2.244l3.44,-13.119l4.412,-0.675l-3.153,12.036c-0.064,0.266 0.099,0.55 0.413,0.511l4.347,-0.657l3.294,-12.625l4.473,-0.679l-3.183,12.181c-0.064,0.275 0.236,0.421 0.607,0.37l0.744,-0.117l-0.964,3.729l-3.801,0.58Z" style="fill:#e8380d;fill-rule:nonzero;"/><path d="M626.611,156.216l3.144,-12.001c0.073,-0.331 -0.133,-0.632 -0.495,-0.585l-3.41,0.524l-3.319,12.677l-4.244,0.636l3.113,-11.876c0.099,-0.383 -0.018,-0.77 -0.576,-0.684l-3.015,0.448l-3.319,12.688l-4.325,0.654l4.291,-16.421l4.325,-0.654l-0.571,2.232c0.335,-0.602 0.799,-1.239 1.306,-1.742c0.435,-0.429 0.972,-0.744 1.48,-0.817l2.532,-0.378c0.676,-0.098 1.669,-0.035 2.03,0.344c0.417,0.361 0.619,0.925 0.615,1.561c0.366,-0.718 0.826,-1.407 1.415,-1.926c0.486,-0.448 1.113,-0.775 1.918,-0.891l2.351,-0.356c1.002,-0.147 1.776,0.077 2.206,0.554c0.374,0.435 0.486,1.346 0.344,1.879l-3.522,13.493l-4.274,0.641Z" style="fill:#e8380d;fill-rule:nonzero;"/><path d="M301.212,191.575l-0.408,1.724l27.949,-4.326l0.404,-1.746l-27.945,4.348Z" style="fill:#e8380d;fill-rule:nonzero;"/><path d="M649.449,141.678l-0.4,1.725l27.954,-4.339l0.404,-1.733l-27.958,4.347Z" style="fill:#e8380d;fill-rule:nonzero;"/><path d="M685.189,144.847l-56.449,9.034l-0.422,1.84l56.441,-9.02l0.43,-1.854Z" style="fill:#e8380d;fill-rule:nonzero;"/><path d="M505.544,80.061l7.826,-32.718l-2.515,0.447l0.021,-0.129l-10.578,1.986l-4.407,0.783l-0.009,0.048l-22.445,4.209l-1.149,4.825l22.429,-4.201l-6.584,27.532l17.411,-2.782Z" style="fill:#e8380d;fill-rule:nonzero;"/><path d="M659.425,25.753l-0.034,0.099l-5.044,0.842l-0.526,2.271l5.027,-0.834l-1.758,7.392l-23,3.912l-0.426,1.811l15.712,-2.606l-0.318,1.371l-28.367,4.632l-0.357,1.556l75.885,-12.715l1.144,-4.82l-22.815,3.883l2.364,-9.881l-17.487,3.087Z" style="fill:#e8380d;fill-rule:nonzero;"/><path d="M618.111,105.843l0,-0.013l6.102,-0.976l1.44,-6.098l-6.08,0.977l2.335,-9.8l5.59,-1.045l1.444,-6.102l-5.563,1.036l5.159,-21.584l-15.317,2.764l-5.189,21.689l-4.747,0.881l-1.441,6.111l4.739,-0.891l-2.258,9.392l-5.397,0.859l-1.435,6.102l5.375,-0.86l-0.005,0.022l15.248,-2.464Z" style="fill:#e8380d;fill-rule:nonzero;"/><path d="M366.636,91.64l-5.169,21.604l0.039,-0.014l-0.017,0.077l12.04,-2.197l0.954,-4.08l-3.892,0.714l4.223,-17.643l-8.178,1.539Z" style="fill:#e8380d;fill-rule:nonzero;"/><path d="M384.037,109.042l5.182,-21.689l-8.179,1.548l-0.009,0.047l-3.87,0.714l-0.959,4.067l3.853,-0.705l-4.184,17.475l8.166,-1.457Z" style="fill:#e8380d;fill-rule:nonzero;"/><path d="M438.04,53.07l-64.684,10.715l-1.13,4.825l47.204,-7.779l-2.598,10.888l-12.323,2.106l0.757,-3.156l7.193,-1.165l1.007,-4.291l-16.026,2.541l-1.793,7.59l-26.127,4.479l-1.139,4.826l26.109,-4.473l-5.069,21.238c-0.65,2.717 -1.045,5.125 -1.209,7.31c-4.626,3.891 -13.927,9.932 -28.671,11.85l-2.684,11.202c0,0 19.461,-4.799 31.553,-17.441c0.301,1.768 0.852,3.389 1.651,4.928c-2.997,2.82 -6.69,5.391 -11.256,7.619l-0.689,3.131c5.659,-2.068 10.311,-4.541 14.177,-7.418c1.646,2 3.793,3.934 6.472,5.99l0.928,-3.845c-1.411,-2.231 -2.429,-3.999 -3.057,-5.899c5.563,-5.56 9.004,-12.418 11.222,-20.79l-6.565,1.062c-1.063,4.472 -2.709,8.841 -5.268,12.909c0.254,-3.049 1.019,-6.975 2.361,-12.612l4.966,-20.752l12.315,-2.111l-17.118,71.585l-65.092,10.543l-0.425,1.85l82.502,-13.39l22.506,-94.065Z" style="fill:#e8380d;fill-rule:nonzero;"/><path d="M581.467,97.294l-4.644,0.774l2.151,-8.969l-4.997,0.847l-2.142,8.969l-4.906,0.817l2.202,-9.232l-5.289,1.024l-2.18,9.082l-5.117,0.864l3.156,-13.218l24.91,-4.072l-3.144,13.114Zm16.934,-20.179l-12.543,1.824l-0.052,0.231l-35.479,5.818l-0.021,0.112l-0.104,0.008l-10.224,42.746l10.758,-2.081l4.614,-19.302l5.117,-0.861l-4.653,19.466l5.267,-0.894l4.649,-19.449l4.91,-0.826l-4.669,19.535l4.966,-0.722l4.7,-19.651l4.631,-0.774l-6.798,28.427l-69.904,11.33l-0.417,1.849l69.886,-11.322l-0.004,0.022l12.585,-2.038l12.785,-53.448Z" style="fill:#e8380d;fill-rule:nonzero;"/><path d="M682.042,115.569l1.789,-7.563l-68.997,11.816l-0.537,2.267l24.656,-3.992l-0.516,2.25l-52.343,8.165l-0.478,2.051l96.426,-14.994Z" style="fill:#e8380d;fill-rule:nonzero;"/><path d="M342.418,144.078l-27.953,4.532l-0.408,1.793l83.099,-13.48l1.126,-4.829l-47.213,7.452l19.17,-80.155l-17.475,3.079l-19.148,80.09l-6.694,1.157l-0.302,1.419l16.147,-2.568l-0.349,1.51Z" style="fill:#e8380d;fill-rule:nonzero;"/><path d="M432.098,141.868l-0.422,1.849l29.816,-4.636l0.421,-1.835l-29.815,4.622Z" style="fill:#e8380d;fill-rule:nonzero;"/><path d="M521.664,130.985l1.221,-5.212l-3.143,0.503l6.601,-27.558l-11.022,1.965l-6.656,27.812l-14.864,2.404l-0.387,1.702l22.712,-3.625l-0.34,1.514l-42.672,6.854l-0.353,1.514l48.903,-7.873Z" style="fill:#e8380d;fill-rule:nonzero;"/><path d="M377.918,158.573l-0.344,1.526l61.485,-10.134l0.343,-1.518l-61.484,10.126Z" style="fill:#e8380d;fill-rule:nonzero;"/><path d="M511.026,42.385l-67.384,11.098l-0.232,1.088l67.366,-11.093l0.25,-1.093Z" style="fill:#e8380d;fill-rule:nonzero;"/><path d="M555.732,61.395l-33.771,5.603l-1.244,5.242l33.777,-5.591l1.238,-5.254Z" style="fill:#e8380d;fill-rule:nonzero;"/><path d="M519.733,94.079l23.478,-3.836l1.139,-4.833l-23.473,3.849l-1.144,4.82Z" style="fill:#e8380d;fill-rule:nonzero;"/><path d="M547.051,74.105l-23.469,3.845l-1.143,4.824l23.477,-3.84l1.135,-4.829Z" style="fill:#e8380d;fill-rule:nonzero;"/><path d="M579.3,73.047l1.131,-4.829l-13.055,2.288c5.956,-6.738 8.695,-13.777 8.695,-13.777l-14.727,2.589c-3.53,13.407 -11.137,18.012 -11.137,18.012l-1.092,4.575c4.704,-1.045 8.75,-3.143 12.161,-5.693l18.024,-3.165Z" style="fill:#e8380d;fill-rule:nonzero;"/><path d="M527.783,60.199l24.947,-4.132l1.235,-5.25l-24.944,4.128l-1.238,5.254Z" style="fill:#e8380d;fill-rule:nonzero;"/><path d="M444.563,86.291l-1.135,4.829l15.734,-2.821l1.75,-0.288l0.004,-0.031l22.811,-4.088l1.126,-4.833l-22.785,4.085l2.184,-9.103l22.519,-3.926l1.131,-4.829l-22.493,3.93l3.276,-13.704l-7.782,1.367l0.009,-0.06l-17.045,2.834l-0.521,2.275l0.77,-0.121l0.025,-0.15l13.825,-2.301l-0.43,1.845l-7.237,1.204l-5.719,23.886l-0.017,0Z" style="fill:#e8380d;fill-rule:nonzero;"/><path d="M536,127.979l7.839,-32.499l-14.865,2.723l-1.213,5.202l3.818,-0.697l-6.497,27.171l10.918,-1.9Z" style="fill:#e8380d;fill-rule:nonzero;"/><path d="M657.988,95.493l1.178,-4.992l-15.888,2.297l2.894,-12.114l-12.642,2.245l-7.068,29.544l28.52,-4.669l1.161,-5l-15.871,2.562l1.811,-7.576l15.905,-2.297Z" style="fill:#e8380d;fill-rule:nonzero;"/><path d="M671.563,105.301l7.164,-29.992l-28.551,4.764l-1.165,5.005l15.931,-2.666l-5.994,25.018l12.615,-2.129Z" style="fill:#e8380d;fill-rule:nonzero;"/><path d="M691.403,38.468l-36.898,6.583l-0.967,4.072l24.165,-4.287l-6.351,26.544l12.697,-2.142l7.354,-30.77Z" style="fill:#e8380d;fill-rule:nonzero;"/><path d="M669.787,63.553l3.492,-14.568l-9.735,2l-0.959,4.076l2.051,-0.417l-2.481,10.375l7.632,-1.466Z" style="fill:#e8380d;fill-rule:nonzero;"/><path d="M648.821,67.367l9.816,-1.672l0.955,-4.072l-2.094,0.356l2.433,-10.319l-7.735,1.423l-3.375,14.284Z" style="fill:#e8380d;fill-rule:nonzero;"/><path d="M667.788,71.93l0.959,-4.077l-24.729,4.387l6.403,-26.733l-12.724,2.248l-7.34,30.68l37.431,-6.505Z" style="fill:#e8380d;fill-rule:nonzero;"/><path d="M584.202,57.71c-3.221,13.472 1.715,19.087 21.934,14.254l0.92,-3.853l0.103,-0.43c-9.138,0.31 -11.455,-2.076 -8.905,-12.77l1.599,-6.682l0.078,-0.018l1.135,-4.824l-39.46,6.789l-1.139,4.821l25.261,-4.339l-1.526,7.052Z" style="fill:#e8380d;fill-rule:nonzero;"/><path d="M259.073,148.279l-4.141,0.761l0.026,-0.116l-29.179,5.194l-1.234,5.255l18.601,-3.311l-8.54,35.719l-8.999,1.725l-0.49,2.089l6.798,-1.13l-0.292,1.328l-10.582,1.909l-0.354,1.621l27.348,-4.915l11.038,-46.129Z" style="fill:#e8380d;fill-rule:nonzero;"/><path d="M336.794,104.287l0.357,-1.587l-25.726,3.995l-0.353,1.591l25.722,-3.999Z" style="fill:#e8380d;fill-rule:nonzero;"/><path d="M170.529,202.423l-56.092,8.888l-0.279,1.333l56.088,-8.884l0.283,-1.337Z" style="fill:#e8380d;fill-rule:nonzero;"/><path d="M0,217.171l64.339,-9.391l5.672,-23.425l8.195,-1.33l1.032,-4.699l-8.075,1.282l1.337,-5.508c0,0 7.474,-5.001 14.264,-17.282l0.27,-0.507l-18.503,3.276c2.056,-2.455 4.103,-5.139 6.218,-8.066l23.379,-3.926c-3.672,10.298 -12.677,17.659 -12.677,17.659l-1.19,5.015c11.829,-3.897 19.448,-11.568 24.084,-18.151l18.842,-2.949l0.928,-3.948l-17.074,2.666c2.477,-4.321 3.479,-7.465 3.479,-7.465l-15.197,2.675c0,0.009 0,0.026 -0.009,0.035l-9.993,1.672c2.804,-2.636 4.976,-6.485 5.982,-8.505l52.781,-8.338l0.202,-0.907l-64.911,10.122c-1.411,3.238 -3.53,5.921 -5.194,7.739l2.864,-12.009l9.786,-1.694l0.929,-3.956l-9.774,1.69l2.799,-11.678l-20.055,3.353l-0.288,1.312l14.762,-2.33l-0.391,1.694l-9.744,1.621l-2.068,8.616l-7.517,1.308l-0.928,3.951l7.503,-1.303l-3.281,13.764l-12.349,2.056l-1.045,4.455l10.401,-1.742c-2.893,7.375 -10.036,15.437 -16.369,18.27l-1.316,5.504c8.677,-2.894 14.908,-6.699 20.36,-11.765l3.831,-0.563c-2.244,5.474 -9.559,11.24 -9.559,11.24l-1.302,5.405l-31.17,4.95l-0.417,1.862l18.356,-2.993l-0.426,1.853l-5.749,0.954l-0.275,1.174l18.507,-3.005l-4.493,18.584l-29.477,4.231l-0.351,1.549l17.827,-2.564l-0.353,1.519l-37.112,5.619l-0.297,1.324Z" style="fill:#e8380d;fill-rule:nonzero;"/><path d="M218.805,123.506l-1.049,4.442l11.975,-1.939l-1.686,7.065l-10.01,1.699l-0.937,3.96l10.002,-1.707l-1.687,7.039l-22.578,3.917l-1.036,4.437l64.305,-11.158l1.045,-4.438l-23.43,4.064l1.668,-6.987l16.572,-2.838l0.933,-3.956l-16.555,2.837l1.652,-6.905l17.87,-2.898l1.041,-4.442l-17.85,2.903l4.571,-19.153l-27.42,4.962l-0.486,2.086l13.454,-2.365l-0.383,1.699l-4.441,0.899l-3.552,14.839l-11.988,1.938Z" style="fill:#e8380d;fill-rule:nonzero;"/><path d="M159.664,196.923l0.933,-3.947l-13.128,2.274l2.232,-9.348l15.045,-2.614l0.933,-3.952l-15.033,2.61l3.165,-13.243l-24.139,4.497l-0.444,1.906l11.413,-2.065l-0.391,1.707l-3.462,0.736l-5.293,22.14l-1.084,0.185l-0.361,1.556l14.164,-2.394l-0.31,1.233l-77.282,13.06l-0.356,1.53l93.398,-15.871Z" style="fill:#e8380d;fill-rule:nonzero;"/><path d="M70.243,197.646l-1.093,4.601c10.149,-1.905 18.959,-5.379 26.496,-10.414c4.911,3.362 11.58,5.228 19.725,4.514l3.285,-13.721c-3.526,1.208 -8.248,1.364 -12.793,0.573c6.867,-7.234 12.229,-16.34 16.086,-27.434l-14.263,2.137c-2.717,8.397 -6.6,15.733 -11.36,21.813c-3.221,-2.05 -5.323,-4.88 -5.151,-8.401l-4.958,1.022c-0.452,5.032 0.928,10.024 3.917,14.152c-5.796,5.345 -12.521,9.15 -19.891,11.158" style="fill:#e8380d;fill-rule:nonzero;"/><path d="M190.086,162.507l-0.044,0.004l0.082,-0.369l-30.937,5.387l-0.925,3.952l14.933,-2.597l-6.436,26.913l16.043,-2.843l7.284,-30.447Z" style="fill:#e8380d;fill-rule:nonzero;"/><path d="M288.846,138.307l7.009,-1.212l-4.756,19.835l-7,1.251l4.747,-19.874Zm-18.068,22.248l-7.92,1.405l-0.92,3.961l28.223,-5.035l-6.909,28.857l-27.915,4.794l-0.387,1.703l44.083,-7.569l0.377,-1.698l-0.089,0.022l6.94,-28.99l23.954,-4.274l0.925,-3.947l-23.941,4.269l4.724,-19.736l9.004,-1.552l0.925,-3.952l-8.986,1.553l3.181,-13.262l13.692,-2.36l0.927,-3.957l-35.25,6.081c5.134,-6.825 7.624,-13.279 7.624,-13.279l-17.007,2.929c-1.542,14.241 -10.791,20.678 -10.791,20.678l-1.145,4.786c7.271,-1.604 13.119,-5.9 17.604,-10.677l8.26,-1.423l-3.173,13.256l-15.295,2.637l-0.021,0.102l-4.976,0.784l-5.718,23.894Z" style="fill:#e8380d;fill-rule:nonzero;"/><path d="M215.103,181.311l16.877,-3.195l0.925,-3.952l-16.779,3.165l1.544,-6.119l16.718,-3.156l0.924,-3.947l-16.641,3.139l3.217,-12.746l-20.82,3.6l-0.383,1.784l12.147,-2.02l-0.386,1.702l-4.489,0.74l-3.118,13.016c-4.725,19.736 -13.278,26.586 -22.91,29.681l-0.197,0.83l-0.689,2.886c15.197,-1.78 29.669,-12.22 34.06,-25.408" style="fill:#e8380d;fill-rule:nonzero;"/><path d="M179.236,125.472l-13.519,2.373c2.473,-3.56 4.167,-6.514 5.053,-8.14l10.832,-1.758l-0.009,0.039c-0.985,7.628 1.47,13.403 5.92,17.177l-0.068,0.306l-28.788,5.023l-0.004,0.051l-1.437,0.241l-4.652,19.461l-4.192,0.731l4.377,-18.314c3.242,-2.906 6.072,-5.971 8.492,-8.913l16.731,-2.932l1.264,-5.345Zm-6.725,31.325l-3.994,0.696l3.724,-15.579l3.999,-0.696l-3.729,15.579Zm-9.877,1.707l-4.192,0.727l3.715,-15.553l4.206,-0.731l-3.729,15.557Zm-0.829,-38.974l-6.45,1.075l-0.263,0.881c-7.683,21.25 -25.533,30.318 -25.533,30.318l-0.936,3.986c3.496,-0.808 6.789,-2.004 9.881,-3.474l-3.462,14.826l12.367,-2.184l0.009,-0.026l24.59,-4.239l5.418,-0.857l4.683,-19.654l4.391,-0.757l-4.705,19.659l12.714,-2.038l4.073,-17.045c2.877,0.473 5.955,0.542 9.103,0.172l1.015,-4.257c-7.319,0.086 -16.422,-8.216 -12.965,-21.495l0.774,-4.003l-1.354,0.219l0.009,-0.029l-38.708,6.354l-0.58,1.914l6.32,-1.053l-0.391,1.707Z" style="fill:#e8380d;fill-rule:nonzero;"/><path d="M445.607,124.169c2.029,5.504 11.679,7.766 26.732,4.962l32.353,-5.221l1.32,-5.499c0,0 -33.703,5.409 -33.848,5.427l2.876,-11.984l24.028,-3.978l1.226,-5.254l-23.995,3.973l2.745,-11.489l28.142,-4.885l1.135,-4.828l-69.869,12.116l-1.135,4.829l24.26,-4.205l-5.552,23.172c-5.95,-3.332 -2.752,-14.34 -2.752,-14.34l-14.855,2.679c-3.402,17.127 -12.161,21.593 -12.161,21.593l-1.604,6.068c10.131,-2.645 16.701,-7.809 20.954,-13.136" style="fill:#e8380d;fill-rule:nonzero;"/><path d="M117.181,104.058l-64.782,9.946c2.983,-6.217 7.37,-12.285 13.123,-18.227c5.753,-5.938 15.148,-13.356 28.221,-22.247c7.984,-5.44 13.299,-9.469 15.926,-12.058c2.618,-2.593 4.334,-4.932 5.096,-7.022c0.838,-2.236 0.691,-4.037 -0.482,-5.379c-1.165,-1.311 -3.057,-1.776 -5.719,-1.38c-2.739,0.434 -5.315,1.599 -7.688,3.5c-2.352,1.935 -4.605,5.027 -6.743,9.288l-21.017,1.647c2.984,-5.908 6.221,-10.672 9.678,-14.255c3.471,-3.585 7.586,-6.583 12.328,-8.93c4.774,-2.357 10.797,-4.115 18.078,-5.234c7.606,-1.165 13.226,-1.246 16.825,-0.253c3.616,1.006 5.998,3.019 7.155,6.076c1.165,3.035 0.945,6.677 -0.615,10.926c-1.681,4.502 -4.665,9.017 -8.956,13.561c-4.301,4.511 -11.017,9.809 -20.155,15.824c-5.396,3.527 -9.064,5.982 -10.938,7.354c-1.897,1.358 -4.176,3.134 -6.837,5.288l33.72,-5.186l-6.218,16.761Z" style="fill:#e8380d;fill-rule:nonzero;"/><path d="M161.642,62.126c-3.483,9.413 -5.001,15.699 -4.527,18.88c0.472,3.178 2.373,4.516 5.692,4.017c2.197,-0.34 4.36,-1.367 6.515,-3.062c2.145,-1.728 4.192,-4.222 6.128,-7.499c1.934,-3.272 4.14,-8.264 6.617,-14.963c3.637,-9.804 5.22,-16.284 4.721,-19.401c-0.507,-3.11 -2.502,-4.395 -5.999,-3.862c-3.573,0.555 -6.793,2.661 -9.674,6.364c-2.847,3.689 -6.016,10.204 -9.473,19.526m-21.396,3.212c5.215,-14.052 11.51,-24.286 18.919,-30.727c7.396,-6.429 16.538,-10.475 27.438,-12.165c5.228,-0.786 9.292,-0.838 12.208,-0.12c2.889,0.718 5.044,1.875 6.436,3.526c1.389,1.638 2.292,3.431 2.697,5.431c0.417,1.977 0.472,4.377 0.137,7.151c-0.593,5.288 -2.003,10.938 -4.218,16.907c-4.975,13.432 -10.999,23.632 -18.073,30.577c-7.094,6.952 -16.46,11.33 -28.126,13.114c-6.54,0.998 -11.459,0.817 -14.761,-0.542c-3.281,-1.376 -5.508,-3.767 -6.669,-7.206c-0.868,-2.443 -0.946,-5.935 -0.237,-10.509c0.71,-4.566 2.121,-9.719 4.249,-15.437" style="fill:#e8380d;fill-rule:nonzero;"/><path d="M275.684,8.789l-27.885,75.235l-21.839,3.355l18.266,-49.303c-4.484,3.091 -8.668,5.689 -12.573,7.774c-3.878,2.103 -8.591,4.244 -14.108,6.463l6.236,-16.873c8.203,-3.371 14.92,-6.962 20.157,-10.754c5.225,-3.771 9.877,-8.178 13.885,-13.149l17.861,-2.748Z" style="fill:#e8380d;fill-rule:nonzero;"/><path d="M330.417,24.575c1.471,-4.003 1.574,-6.979 0.306,-8.922c-1.29,-1.952 -3.466,-2.679 -6.489,-2.224c-2.855,0.439 -5.62,1.845 -8.273,4.176c-2.652,2.339 -4.747,5.56 -6.252,9.666c-1.553,4.124 -1.741,7.155 -0.567,9.034c1.134,1.892 3.194,2.602 6.11,2.146c3.053,-0.456 5.964,-1.909 8.763,-4.334c2.812,-2.435 4.94,-5.612 6.402,-9.542m-52.003,39.095l22.416,-5.861c-0.482,2.778 -0.289,4.636 0.632,5.616c0.89,0.963 2.317,1.294 4.273,0.997c3.458,-0.533 6.786,-2.593 9.963,-6.235c2.331,-2.67 5.316,-8.028 8.966,-16.072c-3.53,2.923 -6.846,5.164 -10.027,6.776c-3.153,1.574 -6.515,2.662 -10.092,3.204c-6.962,1.066 -11.963,-0.371 -15.012,-4.36c-3.035,-3.978 -3.228,-9.555 -0.567,-16.77c1.823,-4.894 4.722,-9.559 8.642,-13.979c3.94,-4.399 8.433,-7.968 13.477,-10.703c5.035,-2.722 10.802,-4.588 17.255,-5.56c7.783,-1.208 13.562,-0.902 17.312,0.921c3.762,1.827 6.016,5.297 6.786,10.401c0.76,5.087 -0.542,12.169 -3.905,21.259c-4.958,13.368 -11.541,23.598 -19.745,30.714c-8.196,7.095 -17.518,11.455 -27.993,13.08c-6.2,0.938 -10.815,0.998 -13.88,0.194c-3.07,-0.821 -5.311,-2.357 -6.703,-4.622c-1.402,-2.249 -2.004,-5.246 -1.798,-9" style="fill:#e8380d;fill-rule:nonzero;"/><path d="M369.624,55.65l0.657,-2.838l-45.828,7.108l-0.657,2.838l45.828,-7.108Z" style="fill:#e8380d;fill-rule:nonzero;"/><path d="M95.247,60.926l0.666,-2.833l-45.828,7.108l-0.65,2.829l45.812,-7.104Z" style="fill:#e8380d;fill-rule:nonzero;"/><path d="M96.851,55.71l0.778,-2.778l-31.651,4.855l-0.778,2.782l31.651,-4.859Z" style="fill:#e8380d;fill-rule:nonzero;"/><path d="M82.141,60.114l0.77,-2.284l-20.962,3.239l-0.787,2.257l20.979,-3.212Z" style="fill:#e8380d;fill-rule:nonzero;"/></svg>